<svg xmlns="http://www.w3.org/2000/svg" width="120" height="25" viewBox="0 0 120 25" fill="none"><path d="M31.0982 19.4929L26.2363 2.86328H29.1581L32.4724 14.8735L35.7752 2.88638L38.697 2.86328L42.0113 14.8735L45.3142 2.86328H48.2359L43.3856 19.4929H40.6371L37.2303 7.66739L33.8467 19.4929H31.0982Z" fill="#041F39"></path><path d="M54.2529 19.8393C53.0057 19.8393 51.9163 19.5583 50.9848 18.9963C50.0532 18.4343 49.3295 17.6605 48.8137 16.6751C48.3055 15.6819 48.0515 14.5425 48.0515 13.2568C48.0515 11.948 48.3132 10.8008 48.8368 9.81537C49.3603 8.82992 50.0878 8.06003 51.0194 7.50571C51.951 6.95139 53.0288 6.67423 54.2529 6.67423C55.5079 6.67423 56.6011 6.95524 57.5327 7.51726C58.4642 8.07928 59.1879 8.85686 59.7037 9.85002C60.2196 10.8355 60.4775 11.9711 60.4775 13.2568C60.4775 14.5502 60.2157 15.6935 59.6922 16.6866C59.1764 17.6721 58.4527 18.4458 57.5211 19.0078C56.5895 19.5622 55.5002 19.8393 54.2529 19.8393ZM54.2529 17.2294C55.3616 17.2294 56.1854 16.8599 56.7243 16.1208C57.2632 15.3817 57.5327 14.427 57.5327 13.2568C57.5327 12.0481 57.2594 11.0857 56.7127 10.3697C56.1661 9.646 55.3462 9.28415 54.2529 9.28415C53.5061 9.28415 52.8902 9.45353 52.4052 9.79228C51.9279 10.1233 51.5737 10.5891 51.3428 11.1896C51.1118 11.7824 50.9963 12.4715 50.9963 13.2568C50.9963 14.4655 51.2696 15.4317 51.8162 16.1554C52.3706 16.8714 53.1828 17.2294 54.2529 17.2294Z" fill="#041F39"></path><path d="M63.0219 19.4929V7.02068H65.4817V10.0579L65.1814 9.66525C65.3354 9.24951 65.5394 8.87226 65.7935 8.53351C66.0553 8.18706 66.3671 7.9022 66.7289 7.67893C67.0369 7.47106 67.3756 7.30939 67.7452 7.1939C68.1224 7.07072 68.5074 6.99758 68.9 6.97449C69.2926 6.94369 69.6737 6.95909 70.0433 7.02068V9.61905C69.6737 9.51127 69.2465 9.47662 68.7614 9.51512C68.2841 9.55361 67.853 9.68834 67.468 9.91931C67.0831 10.1272 66.7674 10.3928 66.5211 10.7161C66.2824 11.0395 66.1053 11.409 65.9898 11.8248C65.8743 12.2328 65.8166 12.6755 65.8166 13.1528V19.4929H63.0219Z" fill="#041F39"></path><path d="M72.2239 19.4929L72.247 2.86328H75.0648V13.0258L79.6264 7.02068H83.1025L78.2637 13.2568L83.5182 19.4929H79.8343L75.0648 13.4877V19.4929H72.2239Z" fill="#041F39"></path><path d="M91.9851 19.4929C91.1613 19.6469 90.353 19.7123 89.56 19.6892C88.7747 19.6738 88.0702 19.5314 87.4466 19.2619C86.823 18.9847 86.3495 18.5498 86.0262 17.9569C85.7413 17.418 85.5912 16.8676 85.5758 16.3055C85.5604 15.7435 85.5527 15.1084 85.5527 14.4001V3.55618H88.3243V14.2384C88.3243 14.7388 88.3281 15.1776 88.3358 15.5549C88.3512 15.9321 88.4321 16.2401 88.5784 16.4788C88.8555 16.9407 89.2982 17.1986 89.9064 17.2525C90.5146 17.3064 91.2075 17.2756 91.9851 17.1601V19.4929ZM83.2892 9.20331V7.02068H91.9851V9.20331H83.2892Z" fill="#041F39"></path><path d="M99.544 19.8393C98.2968 19.8393 97.2074 19.5583 96.2759 18.9963C95.3443 18.4343 94.6206 17.6605 94.1048 16.6751C93.5966 15.6819 93.3426 14.5425 93.3426 13.2568C93.3426 11.948 93.6043 10.8008 94.1279 9.81537C94.6514 8.82992 95.3789 8.06003 96.3105 7.50571C97.2421 6.95139 98.3199 6.67423 99.544 6.67423C100.799 6.67423 101.892 6.95524 102.824 7.51726C103.755 8.07928 104.479 8.85686 104.995 9.85002C105.511 10.8355 105.769 11.9711 105.769 13.2568C105.769 14.5502 105.507 15.6935 104.983 16.6866C104.467 17.6721 103.744 18.4458 102.812 19.0078C101.881 19.5622 100.791 19.8393 99.544 19.8393ZM99.544 17.2294C100.653 17.2294 101.476 16.8599 102.015 16.1208C102.554 15.3817 102.824 14.427 102.824 13.2568C102.824 12.0481 102.55 11.0857 102.004 10.3697C101.457 9.646 100.637 9.28415 99.544 9.28415C98.7972 9.28415 98.1813 9.45353 97.6963 9.79228C97.219 10.1233 96.8648 10.5891 96.6339 11.1896C96.4029 11.7824 96.2874 12.4715 96.2874 13.2568C96.2874 14.4655 96.5607 15.4317 97.1073 16.1554C97.6617 16.8714 98.4739 17.2294 99.544 17.2294Z" fill="#041F39"></path><path d="M114.307 19.8393C113.09 19.8393 112.07 19.5506 111.246 18.9732C110.423 18.3958 109.803 17.6105 109.387 16.6173C108.971 15.6165 108.763 14.4963 108.763 13.2568C108.763 12.0019 108.971 10.8778 109.387 9.88467C109.803 8.89151 110.411 8.11007 111.212 7.54035C112.02 6.96294 113.017 6.67423 114.203 6.67423C115.381 6.67423 116.401 6.96294 117.263 7.54035C118.133 8.11007 118.807 8.89151 119.284 9.88467C119.761 10.8701 120 11.9942 120 13.2568C120 14.504 119.765 15.6242 119.295 16.6173C118.826 17.6105 118.164 18.3958 117.309 18.9732C116.455 19.5506 115.454 19.8393 114.307 19.8393ZM108.322 24.0355L108.29 7.02068H110.75V15.7743H111.096V24.0355H108.322ZM113.879 17.3449C114.603 17.3449 115.2 17.164 115.669 16.8021C116.139 16.4403 116.485 15.9514 116.709 15.3355C116.94 14.7119 117.055 14.019 117.055 13.2568C117.055 12.5023 116.94 11.8171 116.709 11.2012C116.478 10.5776 116.12 10.0848 115.635 9.72299C115.15 9.35344 114.534 9.16867 113.787 9.16867C113.079 9.16867 112.501 9.34189 112.055 9.68834C111.608 10.0271 111.277 10.5044 111.062 11.1203C110.854 11.7285 110.75 12.4407 110.75 13.2568C110.75 14.0652 110.854 14.7773 111.062 15.3932C111.277 16.0091 111.612 16.4903 112.066 16.8368C112.528 17.1755 113.133 17.3449 113.879 17.3449Z" fill="#041F39"></path><path fill-rule="evenodd" clip-rule="evenodd" d="M10.3987 0.122297C10.1124 -0.0407656 9.76097 -0.0407656 9.47469 0.122297L0.469196 5.25172C0.179057 5.41697 0 5.72453 0 6.05762V16.2999C0 16.633 0.179056 16.9406 0.469195 17.1058L9.47469 22.2353C9.76097 22.3983 10.1124 22.3983 10.3987 22.2353L19.4042 17.1058C19.6943 16.9406 19.8734 16.633 19.8734 16.2999V6.05762C19.8734 5.72453 19.6943 5.41698 19.4042 5.25172L10.3987 0.122297ZM13.0407 11.1788C13.0407 12.8876 11.651 14.2728 9.9367 14.2728C8.2224 14.2728 6.83269 12.8876 6.83269 11.1788C6.83269 9.47001 8.2224 8.08478 9.9367 8.08478C11.651 8.08478 13.0407 9.47001 13.0407 11.1788Z" fill="#008CF0"></path></svg>